<mxfile host="app.diagrams.net" modified="2020-12-04T21:42:55.198Z" agent="5.0 (Windows)" etag="nRTlU2o2-kpvciNq6nIr" version="13.10.9" type="github">
  <diagram id="uYXGkLL6emiWHwGc4dWt" name="Page-1">
    <mxGraphModel dx="1182" dy="761" grid="1" gridSize="10" guides="1" tooltips="1" connect="1" arrows="1" fold="1" page="1" pageScale="1" pageWidth="827" pageHeight="1169" math="0" shadow="0">
      <root>
        <mxCell id="0" />
        <mxCell id="1" parent="0" />
        <mxCell id="Y0gAM7XXFvIKfVQmAlFI-1" value="X1" style="whiteSpace=wrap;html=1;aspect=fixed;" vertex="1" parent="1">
          <mxGeometry x="130" y="10" width="80" height="80" as="geometry" />
        </mxCell>
        <mxCell id="Y0gAM7XXFvIKfVQmAlFI-2" value="" style="endArrow=classic;html=1;exitX=1;exitY=0.5;exitDx=0;exitDy=0;" edge="1" parent="1" source="Y0gAM7XXFvIKfVQmAlFI-1">
          <mxGeometry width="50" height="50" relative="1" as="geometry">
            <mxPoint x="440" y="380" as="sourcePoint" />
            <mxPoint x="290" y="50" as="targetPoint" />
          </mxGeometry>
        </mxCell>
        <mxCell id="Y0gAM7XXFvIKfVQmAlFI-3" value="XML" style="rounded=0;whiteSpace=wrap;html=1;" vertex="1" parent="1">
          <mxGeometry x="290" y="20" width="120" height="60" as="geometry" />
        </mxCell>
        <mxCell id="Y0gAM7XXFvIKfVQmAlFI-5" value="" style="endArrow=none;dashed=1;html=1;exitX=1;exitY=0.5;exitDx=0;exitDy=0;entryX=-0.016;entryY=0.325;entryDx=0;entryDy=0;entryPerimeter=0;" edge="1" parent="1" source="Y0gAM7XXFvIKfVQmAlFI-3">
          <mxGeometry width="50" height="50" relative="1" as="geometry">
            <mxPoint x="440" y="380" as="sourcePoint" />
            <mxPoint x="446.96000000000004" y="49" as="targetPoint" />
          </mxGeometry>
        </mxCell>
        <mxCell id="Y0gAM7XXFvIKfVQmAlFI-6" value="The XML has a number of hours to complete the job, quota ID, and delivery date" style="text;html=1;strokeColor=none;fillColor=none;align=center;verticalAlign=middle;whiteSpace=wrap;rounded=0;" vertex="1" parent="1">
          <mxGeometry x="450" y="40" width="190" height="20" as="geometry" />
        </mxCell>
        <mxCell id="Y0gAM7XXFvIKfVQmAlFI-7" value="&lt;h1&gt;Acceptable Jobs hours per day&lt;br&gt;&lt;/h1&gt;&lt;p&gt;Day 1&lt;/p&gt;&lt;p&gt;ID1&amp;nbsp;&amp;nbsp;&amp;nbsp; Job1&amp;nbsp;&amp;nbsp;&amp;nbsp;&amp;nbsp; 40 hours&amp;nbsp;&amp;nbsp;&amp;nbsp;&amp;nbsp;&amp;nbsp;&amp;nbsp; Deliver&amp;nbsp; on Day1&#39;s date&lt;br&gt;&lt;/p&gt;&lt;p&gt;ID2&amp;nbsp;&amp;nbsp; Job2&amp;nbsp;&amp;nbsp;&amp;nbsp;&amp;nbsp;&amp;nbsp; 50 hours&amp;nbsp;&amp;nbsp;&amp;nbsp;&amp;nbsp;&amp;nbsp;&amp;nbsp; Deliver on Day1&#39;s date&lt;br&gt;&lt;/p&gt;&lt;p&gt;Total hours&amp;nbsp;&amp;nbsp;&amp;nbsp; 90 hours &amp;gt; 82.5 hours (True)&lt;/p&gt;&lt;p&gt;&lt;br&gt;&lt;/p&gt;&lt;p&gt;Day2&lt;br&gt;&lt;/p&gt;&lt;p&gt;ID2&amp;nbsp;&amp;nbsp;&amp;nbsp; Job2&amp;nbsp;&amp;nbsp;&amp;nbsp;&amp;nbsp; 10 hours&amp;nbsp;&amp;nbsp;&amp;nbsp;&amp;nbsp;&amp;nbsp; Deliver on Day2&#39;s date&lt;br&gt;&lt;/p&gt;" style="text;html=1;strokeColor=none;fillColor=none;spacing=5;spacingTop=-20;whiteSpace=wrap;overflow=hidden;rounded=0;" vertex="1" parent="1">
          <mxGeometry x="130" y="130" width="280" height="360" as="geometry" />
        </mxCell>
        <mxCell id="Y0gAM7XXFvIKfVQmAlFI-8" value="&lt;h1&gt;Workers total hour per day&lt;br&gt;&lt;/h1&gt;&lt;p&gt;There are 10 workers and the total hours are 82.5 hours a day&lt;/p&gt;&lt;p&gt;* If there a sick worker, the total hours per day decrease by 8.25 hours&lt;/p&gt;&lt;p&gt;* More information is in the Fabricator Hours Excel sheet&lt;/p&gt;&lt;p&gt;* Some week has a public holiday(s)&lt;/p&gt;&lt;p&gt;&lt;br&gt;&lt;/p&gt;&lt;p&gt;&lt;br&gt;&lt;/p&gt;" style="text;html=1;strokeColor=none;fillColor=none;spacing=5;spacingTop=-20;whiteSpace=wrap;overflow=hidden;rounded=0;" vertex="1" parent="1">
          <mxGeometry x="430" y="130" width="390" height="190" as="geometry" />
        </mxCell>
        <mxCell id="Y0gAM7XXFvIKfVQmAlFI-9" value="" style="curved=1;endArrow=classic;html=1;exitX=0;exitY=0.394;exitDx=0;exitDy=0;exitPerimeter=0;" edge="1" parent="1" source="Y0gAM7XXFvIKfVQmAlFI-7">
          <mxGeometry width="50" height="50" relative="1" as="geometry">
            <mxPoint x="440" y="380" as="sourcePoint" />
            <mxPoint x="120" y="370" as="targetPoint" />
            <Array as="points">
              <mxPoint x="90" y="300" />
              <mxPoint x="80" y="310" />
              <mxPoint x="70" y="330" />
            </Array>
          </mxGeometry>
        </mxCell>
        <mxCell id="Y0gAM7XXFvIKfVQmAlFI-10" value="&lt;div align=&quot;left&quot;&gt;The Job2&#39;s delivery date change to Day2&#39;s date&lt;br&gt;&lt;/div&gt;" style="text;html=1;strokeColor=none;fillColor=none;align=left;verticalAlign=middle;whiteSpace=wrap;rounded=0;" vertex="1" parent="1">
          <mxGeometry x="20" y="200" width="70" height="90" as="geometry" />
        </mxCell>
        <mxCell id="Y0gAM7XXFvIKfVQmAlFI-11" value="Note: 1 XML is 1 Job" style="text;html=1;strokeColor=none;fillColor=none;align=center;verticalAlign=middle;whiteSpace=wrap;rounded=0;" vertex="1" parent="1">
          <mxGeometry x="450" y="80" width="116" height="20" as="geometry" />
        </mxCell>
      </root>
    </mxGraphModel>
  </diagram>
</mxfile>
